<svg t="1716184736597" class="icon" viewBox="0 0 1024 1024" version="1.1" xmlns="http://www.w3.org/2000/svg" p-id="8947" width="200" height="200"><path d="M1024 274s-6.36-26.324-41.328-63.452c-36.75-39.016-71.848-27-72.696-31.05-0.848-4.05 4.662-12.15 4.662-12.15s-15.682 4.05-50.44 37.126c-22.146 21.072-41.24 43.95-50.76 55.858a11.984 11.984 0 0 0-0.956-0.684c3.256-14.144 15.428-47.726 76.29-132.8-73.112 81.54-84.28 118.496-85.486 131.38-5.156 1.432-8.97 6.432-8.97 12.398 0 5.586 3.344 10.324 8.002 12.084 1.628 15.88 3.466 48.83 2.976 93.894-0.536 49.2-13.356 90.344-18.66 105.318-0.7-0.386-1.31-0.6-1.75-0.558-2.22 0.22-11.672 16.076-14.656 23.156-2.984 7.078 0.1 12.2 0.1 12.2l-0.108 0.278c-0.648 0.804-1.044 1.8-1.238 3.028-2.482 5.904-8.394 19.124-17.568 34.674-0.646-0.48-1.134-0.738-1.134-0.738s-2.784-0.506-4.808 1.014c-2.026 1.52-6.46 8.292-21.264 15.694-5.044 2.52-9.628 3.996-13.682 4.876 4.736-23.872 8.532-51.624 10.392-83.854 6.766-117.298-71.89-176.18-134.16-178.204-1.78-0.058-3.55-0.08-5.312-0.076 0-0.328 0.018-0.646 0.08-0.936 0.9-4.17 1.012-5.4-3.712-1.35-0.96 0.82-1.826 1.636-2.596 2.43a143.98 143.98 0 0 0-6.036 0.4c-0.14-1.24-0.248-2.858-0.144-4.856 0.17-3.206 1.014-5.4-3.712-1.348-3.232 2.768-5.448 5.474-6.22 7.454-1.128 0.18-2.248 0.372-3.362 0.58-0.664-1.772-2.268-4.48-2.062-6.854 0.436-5.016 1.856-5.906-1.574-2.73-4.164 3.858-8.6 9.632-9.38 12.73-1.38 0.41-2.74 0.848-4.09 1.304-0.8-0.788-3.15-3.02-3.688-7.592-0.554-4.72-0.506-7.088-3.374-2.194-3.06 5.22-4.852 10.906-5.6 14.892-1.336 0.634-2.656 1.296-3.956 1.98-1.14-1.384-2.278-3.572-2.404-7.392-0.204-6.154 1.726-11.14-2.88-2.88-2.436 4.37-4.81 10.996-6.222 17.302a97.2 97.2 0 0 0-4.482 3.356 106.926 106.926 0 0 1-0.35-7.26c-0.092-6.028 0.91-12.572-2.872-1.06-1.112 3.384-2.232 8.2-2.99 13.736-17.232 16.4-27.704 39.13-27.478 67.06 0.136 16.69 2.092 29.886 5.182 40.196-4.066 5.54-4.402 29.374-0.456 34.9 3.182 4.456 21.428 15.076 25.144 17.044 8.606 4.556 9.62 26.326 5.062 36.45s4.558 12.152 12.152 13.67 17.72-1.012 19.744-5.062c2.024-4.05-6.582-13.164-10.126-31.896-3.544-18.73 5.568-20.25 5.568-20.25s4.052 1.012 10.126 10.632c4.72 7.472 9.684 13.37 14.312 17.602-1.456 1.952-4.02 4.518-8.574 7.374 5.086 0.23 10.25-2.19 13-3.74 1.038 0.746 2.04 1.38 3.01 1.922-0.664 0.706-1.384 1.426-2.172 2.156 1.7-0.138 3.256-0.484 4.67-0.944 1.304 0.528 2.52 0.86 3.6 0.944 6.58 0.506 24.3-15.696 24.3-18.732 0-3.04-9.114-7.594-15.188-15.188-6.076-7.594-6.076-17.72-6.076-17.72s12.656-11.138-19.238-47.082a129.96 129.96 0 0 0-39.438-30.14c-2.596-29.72 16.436-56.554 64.246-54.068 71.382 3.712 102.736 79.414 93.658 152.048a153.908 153.908 0 0 1-0.77 5.348l-0.034 0.03c-3.744 3.512-2.85 3.718-0.624 3.784a164.7 164.7 0 0 1-2.586 11.548c-0.426 0.234-0.856 0.476-1.292 0.738-5.288 3.152-3.046 3.09-0.004 3.92a182.48 182.48 0 0 1-2.882 9.012c-1.21 0.336-2.508 0.77-3.876 1.316-5.784 2.302-3.448 2.574-0.53 3.914 0.772 0.356 1.46 0.712 2.086 1.06-1.314 3.38-2.7 6.688-4.152 9.914-1.18 0.18-2.454 0.44-3.798 0.788-6.024 1.56-3.742 2.122-1.016 3.818 0.756 0.47 1.422 0.93 2.018 1.37a237.54 237.54 0 0 1-4.572 8.926c-1.894 0.05-4.224 0.404-6.808 1.074-6.026 1.56-3.744 2.122-1.016 3.818 1.524 0.946 2.698 1.86 3.6 2.632a281.504 281.504 0 0 1-5.166 8.506c-2.108-0.262-5.214 0.06-8.808 0.992-6.026 1.56-3.744 2.12-1.018 3.816a28.99 28.99 0 0 1 4.462 3.4 366.1 366.1 0 0 1-5.374 7.73c-1.98-0.756-5.53-0.88-9.82-0.256-6.16 0.896-3.954 1.704-1.428 3.684 2.86 2.244 4.328 4.198 5.062 5.028-0.926 1.24-1.82 2.432-2.68 3.568-1.874-2.48-6.34-5.266-10.486-8.226-3.544-2.532-10.378-5.57-12.402-5.57-2.026 0-8.44 11.476-43.37 8.44-34.932-3.04-37.126-6.414-40.164-6.414-2.904 0-9.186 2.308-9.734 2.51a148.71 148.71 0 0 1-8.83-5.21c-41.176-26.326-64.8-51.976-64.8-51.976s4.724-5.4-2.026-12.15c-4.894-4.896-16.854-14.044-24.626-18.706-6.384-8.782-17.09-25.71-30.05-54.872-20.252-45.566-21.896-77.08-20.884-90.844a17.504 17.504 0 0 0 6.708-13.784c0-8.9-6.632-16.236-15.22-17.378-8.924-18.566-43.08-64.622-172.434-162.174 125.996 107.926 150.59 150.134 157.114 167.78a17.592 17.592 0 0 0-0.72 0.836c-16.05-12.45-44.64-33.604-77.416-53.188-55.352-33.076-80.328-37.126-80.328-37.126s8.776 8.1 7.426 12.15c-1.35 4.05-57.242-7.966-115.766 31.05C10.126 332.052 0 358.378 0 358.378s23.454-32.75 67.36-55.672c-0.576 15.072-1.812 84.66 19.042 175.824 21.952 95.96 63.126 186.658 68.852 199.032 0.18 7.604 0.674 11.572 0.674 11.572s6.31-76.326 32.246-155.598c7.452 12.064 32.348 47.674 88.582 89.448 67.482 50.128 99.45 64.756 102.36 66.044 0.066 6.746 0.244 10.232 0.244 10.232s0.218-4.214 0.746-11.214c2.846-4.1 13.42-18.984 23.554-28.612 11.682-11.1 20.832-17.14 23.086-18.564 1.33 4.684 2.66 8.718 3.914 11.814-0.812-4.162-1.54-8.18-2.2-12.066 4.656 0.42 23.086 2.886 51.476 16.792 14.662 7.18 26 16.88 34.09 25.456-0.226 0.066-0.45 0.124-0.676 0.194 0 0 5.288 4.744 11.486 17.154-13.34-0.476-24.02 1.628-31.156 3.584a123.376 123.376 0 0 0-4.168-8.048 20.47 20.47 0 0 0-1.646-5.774c-1.172-2.59-4.082-4.214-6.994-5.956-1.44-1.35-2.924-2.41-4.436-3.108-0.99-0.9-1.83-1.916-2.382-3.134-3.554-7.854-34.052 0.506-40.17 7.664-7.458 8.726-8.92 19.82-5.998 25.952 0.932 1.956 3.04 3.514 5.902 4.708 0.078 9.458 5.86 32.038 17.248 48.372-6.04-28.236-5.068-35.67-4.072-43.964 1.946 14.186 7.28 29.544 24.716 48.576-11.112-24.16-9.28-38.214-8.16-50.66l0.472-0.056c1.564 11.24 6.078 22.794 20.596 41.124-9.63-18.176-8.796-32.908-7.162-44.246l0.34-0.128c1.99 1.286 3.896 2.98 5.714 5.402 5.484 7.312 8.056 14.874 9.066 20.046-1.128 6.044-0.058 11.964 2.85 16.388-28.402 20.776-55.514 37.792-80.686 51.238-44.498-25.768-76.424-42.93-113.44-49.594-39.708-7.148-76.236 12.042-84.61 46.15-6.614 26.946 6.602 70.69 76.94 74.056 41.592 1.99 91.998-17.398 141.78-41.914 4.298 2.296 8.64 4.64 13.072 7.08 108.66 59.88 174.818 67.654 262.536 31.056-41.774 12.632-116.636 33.824-217.294-21.632a2443.32 2443.32 0 0 1-42.908-24.252c28.918-14.824 57.286-30.818 83.24-44.764a1.528 1.528 0 0 0 0.334-0.068s3.544-0.76 6.834-1.772c7.29-2.244 17.5-6.336 29.654-12.076 1.194 4.994 4.046 9.158 8.316 10.81 10.462 4.05 17.996 0.896 22.908-5.104 3.27-1.774 8.048-5.236 11.012-6.034a60.828 60.828 0 0 0 6.498-2.182c-6.32 12.728-3.968 24.964-3.968 24.964 1.822-15.848 9.37-25.942 16.72-30.522 2.756-1.15 5.57-2.156 8.554-2.86 2.708-0.03 4.916 0.968 6.116 3.006 3.014 5.128 9.288 8.262 15.56 9.642 0.996 6.404-1.926 17.21-17.08 36.934 18.52-12.344 26.67-23.106 29.444-31.648 0.652 8.506-1.528 21.66-13.244 44.812 10.108-9.654 17.24-18.746 21.924-26.928 0.27 8.146-0.412 18.938-2.686 33.508 15.248-29.752 13.808-47.566 9.778-57.672a21.212 21.212 0 0 0-0.452-3.168c0.582-0.74 1.176-1.55 1.812-2.44 5.062-7.09-2.024-14.684-6.58-17.72-2.536-1.692-8.546-6.556-19.346-6.706-9.602-11.478-21.734-6.41-40.9 6.2-2.464 1.62-4.82 2.92-7.048 3.96a30.804 30.804 0 0 0-2.36-4.998 613.59 613.59 0 0 0 21.052-13.14c13.572-8.86 23.668-17.792 31.172-26.328 21.676-21.994 29.386-43.45 51.518-61.59-0.176 0.01-0.36 0.034-0.538 0.05 0.856-0.476 1.71-0.944 2.56-1.4 35.348-18.936 54.754-23.116 57.126-23.58-0.034 1.794-0.076 3.606-0.132 5.46 0.258-1.55 0.516-3.34 0.772-5.33 2 0.938 11.532 5.668 20.54 14.674 9.404 9.406 14.73 19.39 15.44 20.76 1.21 7.988 1.864 12.88 1.864 12.88s0.06-4.834-0.406-14.066c7.472-7.47 44.01-45.614 73.552-105.3 29.566-59.736 40.258-107.52 43.416-124.728 19.392 55.556 28.338 105.2 28.338 105.2s-0.062-5.578-1.304-16c4.256-14.76 22.01-80.204 26.752-160.228 4.236-71.518-2.75-118.5-5.952-135.41 27.64 22.926 42.404 55.76 42.404 55.76zM272.37 845.066c-48.674-13.86-27.086-89.862 54.744-58.174 20.024 7.754 43.314 17.602 69.768 30.394-54.78 26.572-98.812 35.096-124.512 27.78z m237.22-243.51a162.82 162.82 0 0 1-1.486-0.796c0.36 0.17 0.884 0.434 1.486 0.796z m0.77 118.926c-2.366 0.54-4.682 1.564-6.834 3-1.666-2.126-3.546-5.178-5.364-9.54l-0.704-1.678c3.728 1.858 8.08 4.484 12.9 8.22z" fill="#93012C" p-id="8948"></path></svg>