<svg t="1716184677597" class="icon" viewBox="0 0 1029 1024" version="1.1" xmlns="http://www.w3.org/2000/svg" p-id="4356" width="200" height="200"><path d="M514.862675 0C230.600828 0 0 229.18531 0 511.999467s230.600828 511.999467 514.862675 511.999467a514.203172 514.203172 0 0 0 255.436743-67.33364l26.766168 67.33364h207.662995l-81.199288-200.711069C989.60827 738.385911 1029.467983 630.19526 1029.467983 512.738392v-0.73993C1029.467983 229.18531 799.124522 0 514.862675 0z m-136.625683 84.348011c17.082734 14.541235 13.897818 8.493111 36.895972 5.758587 26.154921-17.018393 38.315511 40.406618 49.189267 8.364427 32.07034 4.150043 66.143318 14.577427 96.512624 25.061112a148.047348 148.047348 0 0 1 79.558572 48.194986l0.160855 0.193025-0.611247 0.289538 15.023798 19.849429c1.930252 3.442284 3.506625 7.045422 5.14734 10.64856 6.080295 51.698595 63.473135 51.055178 101.949501 69.714285 32.910805 11.678027 72.485002 29.43635 76.566682 69.103038-8.267915-1.801569-40.374447-39.509855-65.628584-43.205484a169.169538 169.169538 0 0 1-48.063287-11.324148l1.125981 0.38605-88.695101-16.439317v-0.289537a124.588749 124.588749 0 0 1-14.123014-2.444987l0.868614 0.160854v0.546905l-125.566945-15.537527a68.463642 68.463642 0 0 1 6.333641 5.14734l128.683498 25.093282v-0.289538l8.975674 2.284133 35.999209 8.074889c7.109763 0.675588 14.316039 1.83374 20.171138 2.863208 36.706968 10.133825 80.137648 8.332256 110.285779 33.972443-7.881864 15.08814-51.891621 6.562858-73.735644 4.632606-2.670183-0.514734-5.629903-0.997297-8.332257-1.447689l-1.447689-0.289538c-29.858593-4.857802-60.513415-5.14734-89.274177 3.763992h-0.289538a136.719179 136.719179 0 0 0-29.396136 13.286571l0.611246-0.353879c-41.532599 24.160327-92.812973 32.910805-127.267979 67.65937-33.747247 36.320917-31.688311 86.314456-25.897554 132.769199h1.415518v11.806711c0.546905 4.085701 1.190322 8.143253 1.709078 12.096249 17.593447 93.938953 64.341749 180.156897 78.919177 275.028806 2.798866 36.160063 8.718307 82.872173 13.2544 112.308522-13.125717-3.892676-20.364164-62.701034-23.323884-43.205484-48.642362-85.606697-99.214977-159.245829-155.288811-228.220183l2.380645 3.024062c-36.578284-43.076801-72.802689-88.369371-116.329883-124.147405-29.372008-22.648296-20.074626-66.497198-23.034346-98.732414-9.876458-39.73103-4.021359-79.269035 2.57367-118.931701 13.415255-41.307403 17.919177-84.416375 36.292768-124.083063 28.020832-24.932428 28.69642-69.90731 55.880809-91.586458a43.180351 43.180351 0 0 0 8.589623 4.278726l2.92755 0.35388h0.289538c3.860505-4.085701-38.090315-47.870261 0.868614-30.53016 1.50801-23.034346 36.642626-5.50122 37.15736-25.608016z m165.036587 93.585074c-13.865647 0.38605-24.610719 5.565561-27.666953 14.37636-4.889973 14.155185 11.710198 32.396071 37.15736 41.178719 25.479333 8.782649 50.090052 4.664777 54.980025-9.490408s-11.678027-32.685608-37.15736-41.468257a77.84849 77.84849 0 0 0-26.540971-4.600435h-0.772101z" fill="#FF6600" p-id="4357"></path></svg>